M48
;Layer_Color=6321
;FILE_FORMAT=2:4
INCH
;TYPE=PLATED
T1F00S00C0.0130
T2F00S00C0.0236
T3F00S00C0.0420
%
T01
X026060Y009761
Y010161
X027060Y010061
X026960Y011661
X027660Y011561
X028310Y011615
X028010Y011115
X028860Y010861
X029560Y010261
X029660Y011661
Y012561
X030260Y012115
X030885Y010940
X031160Y013261
X031210Y014565
X031175Y015615
X029560
X029673Y014678
X029260Y014615
X029010Y014934
X028460Y015165
X028960Y014161
X028760Y013565
X028910Y013115
X027010Y013654
X027060Y014061
X026760Y014315
X026560Y014661
X026910Y015561
X027360Y012061
X031360Y012761
X031160Y017061
X030260Y016615
X029460Y016461
X029660Y016061
X029860Y018115
X028810Y018765
X028060Y016761
X026460Y016461
T02
X025310Y009265
Y009765
Y010265
Y010765
T03
X026560Y009115
X027560
X028560
X029560
X030560
X031560
M30
