G04 Layer_Physical_Order=1*
G04 Layer_Color=25308*
%FSAX24Y24*%
%MOIN*%
G70*
G01*
G75*
%ADD10R,0.0260X0.0244*%
%ADD11R,0.0244X0.0260*%
%ADD12O,0.0827X0.0177*%
%ADD13R,0.0236X0.0217*%
%ADD14C,0.0100*%
%ADD15C,0.0170*%
%ADD16R,0.0600X0.0354*%
%ADD17O,0.0600X0.0354*%
%ADD18O,0.0600X0.0800*%
%ADD19C,0.0200*%
G36*
X026198Y011768D02*
Y011315D01*
X026198Y011315D01*
X026206Y011272D01*
X026231Y011236D01*
X026387Y011079D01*
X026382Y011033D01*
X026382D01*
X026382Y011033D01*
Y010697D01*
X026448D01*
Y009558D01*
X026378Y009529D01*
X026303Y009472D01*
X026246Y009397D01*
X026209Y009309D01*
X026197Y009215D01*
Y009015D01*
X026209Y008921D01*
X026246Y008833D01*
X026303Y008758D01*
X026378Y008701D01*
X026383Y008699D01*
X026373Y008649D01*
X024960D01*
X024956Y008648D01*
X024878Y008658D01*
X024801Y008690D01*
X024735Y008740D01*
X024685Y008806D01*
X024653Y008883D01*
X024643Y008961D01*
X024644Y008965D01*
Y010015D01*
Y010315D01*
Y011115D01*
X024643Y011119D01*
X024653Y011197D01*
X024685Y011274D01*
X024735Y011340D01*
X024801Y011390D01*
X024878Y011422D01*
X024912Y011426D01*
X024960Y011431D01*
Y011431D01*
X024960Y011431D01*
X025556D01*
X025556Y011431D01*
Y011431D01*
X025556D01*
X025558Y011432D01*
X025689Y011445D01*
X025817Y011484D01*
X025935Y011547D01*
X026039Y011632D01*
X026124Y011735D01*
X026148Y011780D01*
X026198Y011768D01*
D02*
G37*
G36*
X031876Y011308D02*
Y009476D01*
X031826Y009459D01*
X031817Y009472D01*
X031742Y009529D01*
X031654Y009566D01*
X031560Y009578D01*
X031466Y009566D01*
X031378Y009529D01*
X031303Y009472D01*
X031246Y009397D01*
X031209Y009309D01*
X031197Y009215D01*
Y009015D01*
X031209Y008921D01*
X031246Y008833D01*
X031303Y008758D01*
X031378Y008701D01*
X031383Y008699D01*
X031373Y008649D01*
X030747D01*
X030737Y008699D01*
X030742Y008701D01*
X030817Y008758D01*
X030874Y008833D01*
X030911Y008921D01*
X030923Y009015D01*
Y009215D01*
X030911Y009309D01*
X030874Y009397D01*
X030817Y009472D01*
X030742Y009529D01*
X030654Y009566D01*
X030560Y009578D01*
X030466Y009566D01*
X030378Y009529D01*
X030303Y009472D01*
X030246Y009397D01*
X030209Y009309D01*
X030197Y009215D01*
Y009015D01*
X030209Y008921D01*
X030246Y008833D01*
X030303Y008758D01*
X030378Y008701D01*
X030383Y008699D01*
X030373Y008649D01*
X029747D01*
X029737Y008699D01*
X029742Y008701D01*
X029817Y008758D01*
X029874Y008833D01*
X029911Y008921D01*
X029923Y009015D01*
Y009215D01*
X029911Y009309D01*
X029882Y009378D01*
X031830Y011327D01*
X031876Y011308D01*
D02*
G37*
G36*
X027412Y010138D02*
Y009543D01*
X027378Y009529D01*
X027303Y009472D01*
X027246Y009397D01*
X027209Y009309D01*
X027197Y009215D01*
Y009015D01*
X027209Y008921D01*
X027246Y008833D01*
X027303Y008758D01*
X027378Y008701D01*
X027383Y008699D01*
X027373Y008649D01*
X026747D01*
X026737Y008699D01*
X026742Y008701D01*
X026817Y008758D01*
X026874Y008833D01*
X026911Y008921D01*
X026923Y009015D01*
Y009215D01*
X026911Y009309D01*
X026874Y009397D01*
X026817Y009472D01*
X026742Y009529D01*
X026672Y009558D01*
Y010697D01*
X026854D01*
X027412Y010138D01*
D02*
G37*
G36*
X031508Y015559D02*
Y014378D01*
X031308D01*
X031293Y014428D01*
X031325Y014450D01*
X031361Y014503D01*
X031373Y014565D01*
X031361Y014627D01*
X031325Y014680D01*
X031272Y014716D01*
X031210Y014728D01*
X031148Y014716D01*
X031095Y014680D01*
X031093Y014677D01*
X031060D01*
X031017Y014669D01*
X030981Y014644D01*
X030981Y014644D01*
X030917Y014580D01*
X030878Y014612D01*
X030883Y014620D01*
X030895Y014678D01*
X030883Y014736D01*
X030850Y014785D01*
Y014827D01*
X030883Y014876D01*
X030895Y014934D01*
X030883Y014992D01*
X030859Y015028D01*
X030853Y015062D01*
X030859Y015095D01*
X030883Y015132D01*
X030895Y015190D01*
X030883Y015248D01*
X030859Y015284D01*
X030853Y015318D01*
X030859Y015351D01*
X030883Y015388D01*
X030895Y015446D01*
X030885Y015493D01*
X030906Y015524D01*
X030921Y015538D01*
X030931Y015536D01*
X030967Y015511D01*
X031010Y015503D01*
X031010Y015503D01*
X031058D01*
X031060Y015500D01*
X031113Y015464D01*
X031175Y015452D01*
X031238Y015464D01*
X031291Y015500D01*
X031326Y015553D01*
X031338Y015615D01*
X031328Y015668D01*
X031357Y015692D01*
X031369Y015697D01*
X031508Y015559D01*
D02*
G37*
G36*
X031560Y019731D02*
D01*
X031610Y019726D01*
X031642Y019722D01*
X031719Y019690D01*
X031785Y019640D01*
X031835Y019574D01*
X031867Y019497D01*
X031871Y019463D01*
X031876Y019415D01*
X031876D01*
X031876Y019415D01*
Y015922D01*
X031830Y015903D01*
X031441Y016293D01*
X031405Y016317D01*
X031362Y016326D01*
X031362Y016326D01*
X030843D01*
X030801Y016353D01*
X030743Y016365D01*
X030093D01*
X030035Y016353D01*
X029986Y016321D01*
X029953Y016271D01*
X029942Y016213D01*
X029953Y016155D01*
X029978Y016119D01*
X029983Y016085D01*
X029978Y016052D01*
X029953Y016015D01*
X029942Y015957D01*
X029953Y015900D01*
X029978Y015863D01*
X029983Y015830D01*
X029978Y015796D01*
X029953Y015760D01*
X029942Y015702D01*
X029953Y015644D01*
X029986Y015594D01*
Y015553D01*
X029953Y015504D01*
X029942Y015446D01*
X029953Y015388D01*
X029977Y015352D01*
X029960Y015308D01*
X029955Y015302D01*
X029832D01*
X029681Y015452D01*
X029675Y015500D01*
X029711Y015553D01*
X029723Y015615D01*
X029711Y015677D01*
X029675Y015730D01*
X029622Y015766D01*
X029560Y015778D01*
X029498Y015766D01*
X029445Y015730D01*
X029409Y015677D01*
X029397Y015615D01*
X029409Y015553D01*
X029445Y015500D01*
X029448Y015497D01*
Y015415D01*
X029448Y015415D01*
X029456Y015372D01*
X029481Y015336D01*
X029706Y015110D01*
X029728Y015096D01*
X029712Y015046D01*
X029127D01*
X029125Y015049D01*
X029072Y015085D01*
X029010Y015097D01*
X028948Y015085D01*
X028895Y015049D01*
X028859Y014996D01*
X028847Y014934D01*
X028859Y014871D01*
X028895Y014819D01*
X028948Y014783D01*
X029010Y014771D01*
X029072Y014783D01*
X029125Y014819D01*
X029127Y014822D01*
X029223D01*
X029228Y014772D01*
X029198Y014766D01*
X029145Y014730D01*
X029109Y014677D01*
X029097Y014615D01*
X029109Y014553D01*
X029145Y014500D01*
X029198Y014464D01*
X029203Y014463D01*
X029604Y014062D01*
X029652Y014030D01*
X029662Y014028D01*
X029709Y014018D01*
X029883D01*
X029913Y013968D01*
X029911Y013960D01*
X030925D01*
X030924Y013968D01*
X030953Y014018D01*
X031138D01*
Y013892D01*
X031360D01*
Y013842D01*
X031410D01*
Y013612D01*
X031508D01*
Y011721D01*
X030889Y011102D01*
X030885Y011103D01*
X030823Y011091D01*
X030770Y011055D01*
X030734Y011002D01*
X030722Y010940D01*
X030734Y010878D01*
X030770Y010825D01*
X030823Y010789D01*
X030885Y010777D01*
X030894Y010779D01*
X030919Y010733D01*
X029723Y009537D01*
X029654Y009566D01*
X029560Y009578D01*
X029466Y009566D01*
X029378Y009529D01*
X029303Y009472D01*
X029246Y009397D01*
X029209Y009309D01*
X029197Y009215D01*
Y009015D01*
X029209Y008921D01*
X029246Y008833D01*
X029303Y008758D01*
X029378Y008701D01*
X029383Y008699D01*
X029373Y008649D01*
X028822D01*
X028805Y008699D01*
X028845Y008730D01*
X028909Y008813D01*
X028950Y008911D01*
X028963Y009015D01*
Y009065D01*
X028157D01*
Y009015D01*
X028170Y008911D01*
X028211Y008813D01*
X028275Y008730D01*
X028315Y008699D01*
X028298Y008649D01*
X027747D01*
X027737Y008699D01*
X027742Y008701D01*
X027817Y008758D01*
X027874Y008833D01*
X027911Y008921D01*
X027923Y009015D01*
Y009215D01*
X027911Y009309D01*
X027874Y009397D01*
X027817Y009472D01*
X027742Y009529D01*
X027708Y009543D01*
Y010200D01*
X027698Y010247D01*
X027697Y010256D01*
X027665Y010304D01*
X027073Y010896D01*
Y011033D01*
X027042D01*
Y011080D01*
X027031Y011137D01*
X026999Y011185D01*
X026658Y011526D01*
Y014004D01*
X026817Y014163D01*
X026822Y014164D01*
X026875Y014200D01*
X026911Y014253D01*
X026923Y014315D01*
X026911Y014377D01*
X026875Y014430D01*
X026822Y014466D01*
X026760Y014478D01*
X026698Y014466D01*
X026645Y014430D01*
X026609Y014377D01*
X026608Y014372D01*
X026468Y014232D01*
X026422Y014252D01*
Y015419D01*
X027105Y016101D01*
X027239D01*
X027244Y016095D01*
X027261Y016051D01*
X027237Y016015D01*
X027225Y015957D01*
X027237Y015900D01*
X027261Y015863D01*
X027267Y015830D01*
X027261Y015796D01*
X027237Y015760D01*
X027225Y015702D01*
X027237Y015644D01*
X027270Y015594D01*
Y015553D01*
X027237Y015504D01*
X027230Y015470D01*
X027177Y015452D01*
X027072Y015557D01*
X027073Y015561D01*
X027061Y015623D01*
X027025Y015676D01*
X026972Y015711D01*
X026910Y015724D01*
X026848Y015711D01*
X026795Y015676D01*
X026759Y015623D01*
X026747Y015561D01*
X026759Y015498D01*
X026795Y015445D01*
X026848Y015410D01*
X026910Y015398D01*
X026914Y015398D01*
X027202Y015110D01*
X027238Y015086D01*
X027245Y015085D01*
X027254Y015070D01*
X027262Y015032D01*
X027261Y015028D01*
X027237Y014992D01*
X027225Y014934D01*
X027237Y014876D01*
X027270Y014827D01*
Y014785D01*
X027237Y014736D01*
X027225Y014678D01*
X027237Y014620D01*
X027267Y014575D01*
X027241Y014558D01*
X027199Y014496D01*
X027195Y014472D01*
X028209D01*
X028204Y014496D01*
X028162Y014558D01*
X028137Y014575D01*
X028166Y014620D01*
X028178Y014678D01*
X028166Y014736D01*
X028143Y014772D01*
X028160Y014816D01*
X028165Y014822D01*
X028229D01*
X028229Y014822D01*
X028272Y014830D01*
X028308Y014855D01*
X028456Y015003D01*
X028460Y015002D01*
X028522Y015014D01*
X028575Y015050D01*
X028611Y015103D01*
X028623Y015165D01*
X028611Y015227D01*
X028575Y015280D01*
X028528Y015312D01*
X028521Y015344D01*
X028520Y015366D01*
X029089Y015936D01*
X029089Y015936D01*
X029114Y015972D01*
X029122Y016015D01*
X029122Y016015D01*
Y017619D01*
X029506Y018003D01*
X029743D01*
X029745Y018000D01*
X029798Y017964D01*
X029860Y017952D01*
X029922Y017964D01*
X029975Y018000D01*
X030011Y018053D01*
X030023Y018115D01*
X030011Y018177D01*
X029975Y018230D01*
X029922Y018266D01*
X029860Y018278D01*
X029798Y018266D01*
X029745Y018230D01*
X029743Y018227D01*
X029460D01*
X029460Y018227D01*
X029417Y018219D01*
X029381Y018194D01*
X029381Y018194D01*
X028972Y017786D01*
X028922Y017806D01*
Y018648D01*
X028925Y018650D01*
X028961Y018703D01*
X028973Y018765D01*
X028961Y018827D01*
X028925Y018880D01*
X028872Y018916D01*
X028810Y018928D01*
X028748Y018916D01*
X028695Y018880D01*
X028659Y018827D01*
X028647Y018765D01*
X028659Y018703D01*
X028695Y018650D01*
X028698Y018648D01*
Y016173D01*
X028669Y016150D01*
X028621Y016172D01*
Y017089D01*
X028621Y017089D01*
X028612Y017132D01*
X028588Y017169D01*
X028588Y017169D01*
X028423Y017334D01*
Y017547D01*
X028117D01*
Y017587D01*
X027937D01*
Y017365D01*
Y017143D01*
X028117D01*
Y017183D01*
X028257D01*
X028397Y017043D01*
Y016160D01*
X028306Y016070D01*
X028165D01*
X028160Y016076D01*
X028143Y016120D01*
X028166Y016155D01*
X028178Y016213D01*
X028166Y016271D01*
X028134Y016321D01*
X028084Y016353D01*
X028027Y016365D01*
X027377D01*
X027319Y016353D01*
X027277Y016326D01*
X027058D01*
X027058Y016326D01*
X027015Y016317D01*
X026979Y016293D01*
X026979Y016293D01*
X026285Y015599D01*
X026239Y015618D01*
Y019393D01*
X026244Y019415D01*
X026244D01*
X026242Y019416D01*
X026253Y019497D01*
X026285Y019574D01*
X026335Y019640D01*
X026401Y019690D01*
X026478Y019722D01*
X026512Y019726D01*
X026560Y019731D01*
Y019731D01*
X026560Y019731D01*
X031510D01*
X031560Y019731D01*
D02*
G37*
%LPC*%
G36*
X028610Y009612D02*
Y009165D01*
X028963D01*
Y009215D01*
X028950Y009319D01*
X028909Y009417D01*
X028845Y009500D01*
X028762Y009564D01*
X028664Y009605D01*
X028610Y009612D01*
D02*
G37*
G36*
X028510D02*
X028456Y009605D01*
X028358Y009564D01*
X028275Y009500D01*
X028211Y009417D01*
X028170Y009319D01*
X028157Y009215D01*
Y009165D01*
X028510D01*
Y009612D01*
D02*
G37*
G36*
X025706Y009715D02*
X024914D01*
X024917Y009693D01*
X024945Y009625D01*
X024989Y009567D01*
X025009Y009552D01*
X024992Y009502D01*
X024950D01*
Y009028D01*
X025670D01*
Y009502D01*
X025628D01*
X025611Y009552D01*
X025631Y009567D01*
X025675Y009625D01*
X025703Y009693D01*
X025706Y009715D01*
D02*
G37*
G36*
X027837Y017587D02*
X027657D01*
Y017415D01*
X027837D01*
Y017587D01*
D02*
G37*
G36*
X031310Y013792D02*
X031138D01*
Y013612D01*
X031310D01*
Y013792D01*
D02*
G37*
G36*
X028209Y014372D02*
X027195D01*
X027199Y014348D01*
X027241Y014286D01*
X027267Y014269D01*
X027237Y014224D01*
X027225Y014166D01*
X027237Y014108D01*
X027261Y014072D01*
X027267Y014038D01*
X027261Y014005D01*
X027237Y013968D01*
X027225Y013910D01*
X027237Y013852D01*
X027261Y013816D01*
X027244Y013772D01*
X027239Y013766D01*
X027127D01*
X027125Y013770D01*
X027072Y013805D01*
X027010Y013817D01*
X026948Y013805D01*
X026895Y013770D01*
X026859Y013717D01*
X026847Y013654D01*
X026859Y013592D01*
X026895Y013539D01*
X026948Y013504D01*
X027010Y013491D01*
X027072Y013504D01*
X027125Y013539D01*
X027127Y013542D01*
X027239D01*
X027244Y013536D01*
X027261Y013492D01*
X027237Y013456D01*
X027225Y013398D01*
X027237Y013340D01*
X027261Y013304D01*
X027267Y013270D01*
X027261Y013237D01*
X027237Y013200D01*
X027225Y013143D01*
X027237Y013085D01*
X027270Y013035D01*
Y012994D01*
X027237Y012945D01*
X027225Y012887D01*
X027237Y012829D01*
X027270Y012779D01*
X027319Y012747D01*
X027377Y012735D01*
X028027D01*
X028084Y012747D01*
X028106Y012761D01*
X028198Y012669D01*
Y011732D01*
X028195Y011730D01*
X028159Y011677D01*
X028147Y011615D01*
X028159Y011553D01*
X028195Y011500D01*
X028248Y011464D01*
X028310Y011452D01*
X028372Y011464D01*
X028425Y011500D01*
X028448Y011533D01*
X028498Y011518D01*
Y011461D01*
X028264Y011227D01*
X028127D01*
X028125Y011230D01*
X028072Y011266D01*
X028010Y011278D01*
X027948Y011266D01*
X027895Y011230D01*
X027859Y011177D01*
X027847Y011115D01*
X027859Y011053D01*
X027895Y011000D01*
X027948Y010964D01*
X028010Y010952D01*
X028072Y010964D01*
X028125Y011000D01*
X028127Y011003D01*
X028310D01*
X028310Y011003D01*
X028353Y011011D01*
X028389Y011036D01*
X028689Y011336D01*
X028714Y011372D01*
X028722Y011415D01*
X028722Y011415D01*
Y013018D01*
X028772Y013033D01*
X028795Y013000D01*
X028848Y012964D01*
X028910Y012952D01*
X028972Y012964D01*
X029025Y013000D01*
X029061Y013053D01*
X029073Y013115D01*
X029072Y013119D01*
X029240Y013286D01*
X029955D01*
X029960Y013280D01*
X029977Y013236D01*
X029953Y013200D01*
X029942Y013143D01*
X029953Y013085D01*
X029986Y013035D01*
Y012994D01*
X029953Y012945D01*
X029942Y012887D01*
X029953Y012829D01*
X029986Y012779D01*
X030035Y012747D01*
X030093Y012735D01*
X030148D01*
Y012232D01*
X030145Y012230D01*
X030109Y012177D01*
X030097Y012115D01*
X030109Y012053D01*
X030145Y012000D01*
X030198Y011964D01*
X030260Y011952D01*
X030322Y011964D01*
X030375Y012000D01*
X030411Y012053D01*
X030423Y012115D01*
X030411Y012177D01*
X030375Y012230D01*
X030372Y012232D01*
Y012735D01*
X030743D01*
X030801Y012747D01*
X030850Y012779D01*
X030883Y012829D01*
X030895Y012887D01*
X030883Y012945D01*
X030850Y012994D01*
Y013035D01*
X030883Y013085D01*
X030895Y013143D01*
X030883Y013200D01*
X030859Y013237D01*
X030853Y013270D01*
X030859Y013304D01*
X030883Y013340D01*
X030895Y013398D01*
X030883Y013456D01*
X030859Y013493D01*
X030853Y013526D01*
X030859Y013560D01*
X030883Y013596D01*
X030895Y013654D01*
X030883Y013712D01*
X030853Y013757D01*
X030879Y013774D01*
X030921Y013837D01*
X030925Y013860D01*
X029911D01*
X029916Y013837D01*
X029929Y013816D01*
X029903Y013766D01*
X028849D01*
X028849Y013766D01*
X028806Y013758D01*
X028770Y013734D01*
X028764Y013727D01*
X028760Y013728D01*
X028698Y013716D01*
X028645Y013680D01*
X028609Y013627D01*
X028597Y013565D01*
X028609Y013503D01*
X028645Y013450D01*
X028698Y013414D01*
X028760Y013402D01*
X028822Y013414D01*
X028875Y013450D01*
X028911Y013503D01*
X028919Y013542D01*
X029121D01*
X029136Y013492D01*
X029114Y013478D01*
X029114Y013478D01*
X028914Y013277D01*
X028910Y013278D01*
X028848Y013266D01*
X028795Y013230D01*
X028759Y013177D01*
X028752Y013141D01*
X028699Y013130D01*
X028689Y013144D01*
X028689Y013144D01*
X028356Y013478D01*
X028319Y013502D01*
X028277Y013511D01*
X028277Y013511D01*
X028165D01*
X028160Y013517D01*
X028143Y013561D01*
X028166Y013596D01*
X028178Y013654D01*
X028166Y013712D01*
X028134Y013761D01*
Y013803D01*
X028166Y013852D01*
X028178Y013910D01*
X028166Y013968D01*
X028142Y014005D01*
X028137Y014038D01*
X028142Y014072D01*
X028166Y014108D01*
X028178Y014166D01*
X028166Y014224D01*
X028137Y014269D01*
X028162Y014286D01*
X028204Y014348D01*
X028209Y014372D01*
D02*
G37*
G36*
X025433Y011007D02*
X025187D01*
X025095Y010988D01*
X025016Y010936D01*
X024964Y010858D01*
X024945Y010765D01*
X024964Y010672D01*
X025016Y010594D01*
X025095Y010542D01*
X025100Y010540D01*
Y010490D01*
X025095Y010488D01*
X025016Y010436D01*
X024964Y010358D01*
X024945Y010265D01*
X024964Y010172D01*
X025016Y010094D01*
X025058Y010066D01*
X025053Y010009D01*
X025047Y010007D01*
X024989Y009963D01*
X024945Y009905D01*
X024917Y009837D01*
X024914Y009815D01*
X025706D01*
X025703Y009837D01*
X025675Y009905D01*
X025631Y009963D01*
X025573Y010007D01*
X025567Y010009D01*
X025562Y010066D01*
X025604Y010094D01*
X025656Y010172D01*
X025675Y010265D01*
X025656Y010358D01*
X025604Y010436D01*
X025525Y010488D01*
X025520Y010490D01*
Y010540D01*
X025525Y010542D01*
X025604Y010594D01*
X025656Y010672D01*
X025675Y010765D01*
X025656Y010858D01*
X025604Y010936D01*
X025525Y010988D01*
X025433Y011007D01*
D02*
G37*
G36*
X027837Y017315D02*
X027657D01*
Y017143D01*
X027837D01*
Y017315D01*
D02*
G37*
%LPD*%
D10*
X028233Y017365D02*
D03*
X027887D02*
D03*
D11*
X031360Y013842D02*
D03*
Y014188D02*
D03*
D12*
X027702Y016213D02*
D03*
Y015957D02*
D03*
Y015702D02*
D03*
Y015446D02*
D03*
Y015190D02*
D03*
Y014934D02*
D03*
Y014678D02*
D03*
Y014422D02*
D03*
Y014166D02*
D03*
Y013910D02*
D03*
Y013654D02*
D03*
Y013398D02*
D03*
Y013143D02*
D03*
Y012887D02*
D03*
X030418Y016213D02*
D03*
Y015957D02*
D03*
Y015702D02*
D03*
Y015446D02*
D03*
Y015190D02*
D03*
Y014934D02*
D03*
Y014678D02*
D03*
Y014422D02*
D03*
Y014166D02*
D03*
Y013910D02*
D03*
Y013654D02*
D03*
Y013398D02*
D03*
Y013143D02*
D03*
Y012887D02*
D03*
D13*
X026895Y010865D02*
D03*
X026560D02*
D03*
D14*
X027281Y015190D02*
X027702D01*
X026910Y015561D02*
X027281Y015190D01*
X031010Y015615D02*
X031175D01*
X030923Y015702D02*
X031010Y015615D01*
X030418Y015702D02*
X030923D01*
X026310Y015465D02*
X027058Y016213D01*
X026310Y011315D02*
Y015465D01*
Y011315D02*
X026560Y011065D01*
Y010865D02*
Y011065D01*
X029010Y016015D02*
Y017665D01*
X028441Y015446D02*
X029010Y016015D01*
Y017665D02*
X029460Y018115D01*
X029010Y014934D02*
X030418D01*
X028810Y016115D02*
Y018765D01*
X030282Y012887D02*
X030418D01*
X030260Y012865D02*
X030282Y012887D01*
X030260Y012115D02*
Y012865D01*
X028310Y011615D02*
Y012715D01*
X028610Y011415D02*
Y013065D01*
X028277Y013398D02*
X028610Y013065D01*
X027702Y013398D02*
X028277D01*
X028310Y011115D02*
X028610Y011415D01*
X028910Y013115D02*
X029193Y013398D01*
X029673Y014678D02*
X030418D01*
X031267Y015957D02*
X031620Y015605D01*
Y011675D02*
Y015605D01*
X030885Y010940D02*
X031620Y011675D01*
X031362Y016213D02*
X031810Y015765D01*
Y011465D02*
Y015765D01*
X029560Y009215D02*
X031810Y011465D01*
X029193Y013398D02*
X030418D01*
X028760Y013565D02*
X028849Y013654D01*
X030418D01*
Y015957D02*
X031267D01*
X030418Y016213D02*
X031362D01*
X027702Y014934D02*
X028229D01*
X028460Y015165D01*
X027702Y015446D02*
X028441D01*
X028397Y015702D02*
X028810Y016115D01*
X027702Y015702D02*
X028397D01*
X027058Y016213D02*
X027702D01*
Y015957D02*
X028352D01*
X028509Y016114D01*
Y017089D01*
X028233Y017365D02*
X028509Y017089D01*
X029785Y015190D02*
X030418D01*
X029560Y015415D02*
X029785Y015190D01*
X029560Y015415D02*
Y015615D01*
X029460Y018115D02*
X029860D01*
X027010Y013654D02*
X027702D01*
Y012887D02*
X028138D01*
X028310Y012715D01*
X028010Y011115D02*
X028310D01*
X030418Y014422D02*
X030917D01*
X031060Y014565D01*
X031210D01*
X026560Y009115D02*
Y010865D01*
D15*
X027560Y009115D02*
Y010200D01*
X026510Y014065D02*
X026760Y014315D01*
X026510Y011465D02*
Y014065D01*
Y011465D02*
X026895Y011080D01*
Y010865D02*
Y011080D01*
X029709Y014166D02*
X030418D01*
X029260Y014615D02*
X029709Y014166D01*
X030418D02*
X031238D01*
X026895Y010865D02*
X027560Y010200D01*
D16*
X025310Y009265D02*
D03*
D17*
Y009765D02*
D03*
Y010265D02*
D03*
Y010765D02*
D03*
D18*
X027560Y009115D02*
D03*
X028560D02*
D03*
X026560D02*
D03*
X030560D02*
D03*
X031560D02*
D03*
X029560D02*
D03*
D19*
X026060Y009761D02*
D03*
Y010161D02*
D03*
X027660Y011561D02*
D03*
X026960Y011661D02*
D03*
X027360Y012061D02*
D03*
X031160Y017061D02*
D03*
X030260Y016615D02*
D03*
X029660Y016061D02*
D03*
X029460Y016461D02*
D03*
X026460D02*
D03*
X028060Y016761D02*
D03*
X026560Y014661D02*
D03*
X027060Y014061D02*
D03*
X028960Y014161D02*
D03*
X031160Y013261D02*
D03*
X031360Y012761D02*
D03*
X029660Y011661D02*
D03*
Y012561D02*
D03*
X027060Y010061D02*
D03*
X028860Y010861D02*
D03*
X029560Y010261D02*
D03*
X026910Y015561D02*
D03*
X031175Y015615D02*
D03*
X029010Y014934D02*
D03*
X029260Y014615D02*
D03*
X028810Y018765D02*
D03*
X030260Y012115D02*
D03*
X028310Y011615D02*
D03*
X028910Y013115D02*
D03*
X029673Y014678D02*
D03*
X026760Y014315D02*
D03*
X027010Y013654D02*
D03*
X028760Y013565D02*
D03*
X030885Y010940D02*
D03*
X028460Y015165D02*
D03*
X029560Y015615D02*
D03*
X029860Y018115D02*
D03*
X028010Y011115D02*
D03*
X031210Y014565D02*
D03*
M02*
