G04 Layer_Color=20142*
%FSAX24Y24*%
%MOIN*%
G70*
G01*
G75*
%ADD25R,0.0340X0.0324*%
%ADD26R,0.0324X0.0340*%
%ADD27O,0.0907X0.0257*%
%ADD28R,0.0316X0.0297*%
%ADD29R,0.0680X0.0434*%
%ADD30O,0.0680X0.0434*%
%ADD31O,0.0680X0.0880*%
D25*
X028233Y017365D02*
D03*
X027887D02*
D03*
D26*
X031360Y013842D02*
D03*
Y014188D02*
D03*
D27*
X027702Y016213D02*
D03*
Y015957D02*
D03*
Y015702D02*
D03*
Y015446D02*
D03*
Y015190D02*
D03*
Y014934D02*
D03*
Y014678D02*
D03*
Y014422D02*
D03*
Y014166D02*
D03*
Y013910D02*
D03*
Y013654D02*
D03*
Y013398D02*
D03*
Y013143D02*
D03*
Y012887D02*
D03*
X030418Y016213D02*
D03*
Y015957D02*
D03*
Y015702D02*
D03*
Y015446D02*
D03*
Y015190D02*
D03*
Y014934D02*
D03*
Y014678D02*
D03*
Y014422D02*
D03*
Y014166D02*
D03*
Y013910D02*
D03*
Y013654D02*
D03*
Y013398D02*
D03*
Y013143D02*
D03*
Y012887D02*
D03*
D28*
X026895Y010865D02*
D03*
X026560D02*
D03*
D29*
X025310Y009265D02*
D03*
D30*
Y009765D02*
D03*
Y010265D02*
D03*
Y010765D02*
D03*
D31*
X027560Y009115D02*
D03*
X028560D02*
D03*
X026560D02*
D03*
X030560D02*
D03*
X031560D02*
D03*
X029560D02*
D03*
M02*
